<?xml version="1.0" encoding="UTF-8"?>
<svg width="168px" height="168px" viewBox="0 0 168 168" version="1.1" xmlns="http://www.w3.org/2000/svg" xmlns:xlink="http://www.w3.org/1999/xlink">
    <!-- Generator: Sketch 52.2 (67145) - http://www.bohemiancoding.com/sketch -->
    <title>Group</title>
    <desc>Created with Sketch.</desc>
    <g id="Page-1" stroke="none" stroke-width="1" fill="none" fill-rule="evenodd">
        <g id="Desktop-HD-Copy-5" transform="translate(-977.000000, -1404.000000)">
            <g id="Group" transform="translate(983.000000, 1410.000000)">
                <circle id="Oval-2" stroke="#FFFFFF" stroke-width="12" fill="#126AB4" cx="78" cy="78" r="78"></circle>
                <path d="M102.793506,50 C101.973558,50 101.15388,50.3131966 100.527161,50.9398616 L77.9984123,73.4675196 L55.4730603,50.943328 C54.2195526,49.6899299 52.1933327,49.6899299 50.9400289,50.943328 C49.686657,52.1966581 49.686657,54.2223767 50.9400289,55.4757748 L73.4653788,78.0001023 L50.9400289,100.524633 C49.686657,101.777963 49.686657,103.80409 50.9400289,105.057488 C51.5651855,105.682657 52.3858141,105.996602 53.2065106,105.996602 C54.0270712,105.996602 54.8479036,105.682657 55.4730603,105.057488 L77.9984123,82.5330248 L100.527161,105.060682 C101.152249,105.685852 101.972878,106 102.793506,106 C103.614135,106 104.431569,105.685852 105.05992,105.060682 C106.31336,103.807284 106.31336,101.781429 105.05992,100.528099 L82.5314437,78.0003742 L105.05992,55.4727162 C106.31336,54.2193182 106.31336,52.1932597 105.05992,50.9398616 C104.4332,50.3131966 103.613183,50 102.793506,50 Z" id="Shape" fill="#FEE198" fill-rule="nonzero"></path>
            </g>
        </g>
    </g>
</svg>