<svg xmlns="http://www.w3.org/2000/svg" xmlns:xlink="http://www.w3.org/1999/xlink" width="1440" height="315" viewBox="0 0 1440 315">
    <defs>
        <path id="a" d="M0 0h1440v315H0z"/>
        <linearGradient id="c" x1="50.002%" x2="50.002%" y1="100.052%" y2=".007%">
            <stop offset="0%" stop-color="gray" stop-opacity=".25"/>
            <stop offset="54%" stop-color="gray" stop-opacity=".12"/>
            <stop offset="100%" stop-color="gray" stop-opacity=".1"/>
        </linearGradient>
    </defs>
    <g fill="none" fill-rule="evenodd">
        <mask id="b" fill="#fff">
            <use xlink:href="#a"/>
        </mask>
        <use fill="#E5E2D9" xlink:href="#a"/>
        <g mask="url(#b)" opacity=".27">
            <path fill="#F5EE4A" d="M580 236c9.565 40.71 29.814 75.9 61.81 92.98 66.51 35.45 216.496 17.163 328.43-3.84 56.563-10.577 107.905-39.802 145.76-82.968L580 236zM1166.342 44.301h-61.398c-2.93 0-5.304-2.366-5.304-5.285 0-2.92 2.375-5.286 5.304-5.286h10.614c-2.864-.092-5.139-2.433-5.139-5.288 0-2.856 2.275-5.197 5.139-5.289h-7.58c-2.863-.092-5.138-2.432-5.138-5.288 0-2.856 2.275-5.197 5.139-5.289h32.046c-7.111-3.293-15.423-5.637-25.001-6.866-87.38-11.18-118.577-3.782-129.582 3.842-13.577 9.386-28.724 16.29-44.913 19.617-53.912 11.082-154.737 24.42-246.12-4.27C648.989 10.628 615.236 34.734 595 75h582c-.76-11.702-3.035-22.504-7.21-31.967a5.277 5.277 0 0 1-3.448 1.268z" opacity=".1"/>
            <path fill="#F5EE4A" fill-rule="nonzero" d="M574.321 151a270.485 270.485 0 0 0 2.379 71.286L1115.56 242a253.234 253.234 0 0 0 37.44-57.111L574.321 151zm213.126 50.85h-10.61a5.303 5.303 0 0 1 0 10.606h-61.375a5.302 5.302 0 0 1 0-10.606h10.61a5.308 5.308 0 0 1 0-10.612h-7.577a5.308 5.308 0 0 1 0-10.611h61.376a5.308 5.308 0 0 1 0 10.611h7.576a5.308 5.308 0 0 1 0 10.612zM1177.727 75l-588.64 14.304C581.925 107.684 577.204 128.45 575 150h592.413a251.14 251.14 0 0 0 8.556-38.691c1.763-12.659 2.468-24.905 1.758-36.309zm-483.223 46.85h-10.616a5.307 5.307 0 0 1 4.594 2.648 5.291 5.291 0 0 1 0 5.298 5.307 5.307 0 0 1-4.594 2.65h-61.41a5.302 5.302 0 0 1-5.306-5.299 5.302 5.302 0 0 1 5.306-5.297h10.616a5.307 5.307 0 0 1-5.14-5.301 5.307 5.307 0 0 1 5.14-5.3h-7.58a5.307 5.307 0 0 1-5.14-5.301 5.307 5.307 0 0 1 5.14-5.3h61.41a5.307 5.307 0 0 1 5.14 5.3 5.307 5.307 0 0 1-5.14 5.3h7.58a5.307 5.307 0 0 1 5.14 5.301 5.307 5.307 0 0 1-5.14 5.3z" opacity=".1"/>
            <path stroke="#535461" stroke-width="2" d="M657.176 384s-8.065-26.316 1.509-45.682c4.076-8.1 5.307-17.253 3.51-26.084A67.636 67.636 0 0 0 658.359 300"/>
            <path fill="#F5EE4A" d="M665 287.586c0 3.184-5.997 12.414-5.997 12.414S653 290.748 653 287.586c.1-3.112 2.757-5.586 6-5.586s5.9 2.474 6 5.586zM674.118 305.736C672.313 308.399 662 313 662 313s.188-10.85 1.999-13.509c1.85-2.564 5.507-3.259 8.248-1.567 2.741 1.691 3.571 5.154 1.871 7.812zM649.894 314.333C652.208 316.62 663 319 663 319s-2.645-10.915-4.97-13.21a5.778 5.778 0 0 0-5.73-1.577c-2.05.573-3.632 2.232-4.134 4.335a6.024 6.024 0 0 0 1.717 5.785h.011z"/>
            <path fill="#F5EE4A" d="M665 287.586c0 3.184-5.997 12.414-5.997 12.414S653 290.748 653 287.586c.1-3.112 2.757-5.586 6-5.586s5.9 2.474 6 5.586zM674.118 305.736C672.313 308.399 662 313 662 313s.188-10.85 1.999-13.509c1.85-2.564 5.507-3.259 8.248-1.567 2.741 1.691 3.571 5.154 1.871 7.812zM649.894 314.333C652.208 316.62 663 319 663 319s-2.645-10.915-4.97-13.21a5.778 5.778 0 0 0-5.73-1.577c-2.05.573-3.632 2.232-4.134 4.335a6.024 6.024 0 0 0 1.717 5.785h.011z"/>
            <path fill="url(#c)" fill-rule="nonzero" d="M398.981 144.26c2.95-3.3 1.797-8.445 1.797-8.445s-13.92-35.531-15.464-35.922c-1.544-.39-5.417-9.353-5.417-9.353S342.778 55.2 341.443 55.2c-1.334 0-14.887-9.76-16.623-9.952-1.736-.193-4.45-1.172-7.35-2.751-2.9-1.58-32.29.198-33.45 1.562-1.158 1.365-6.591 2.344-6.591 2.344s-11.02.583-12.57 2.537c-1.548 1.953-12.947 2.987-12.947 2.987s-5.609 2.09 2.005 7.642c-2.44.385-5.29.683-8.185.892-.725.05-1.461.099-2.198.137h-.434a7.196 7.196 0 0 0-2.702-3.637 22.65 22.65 0 0 0-2.566-1.194 20.478 20.478 0 0 1-3.801-2.613 124.564 124.564 0 0 0-17.975-11.928 8.6 8.6 0 0 0-3.202-1.205c-2.357-.226-4.46 1.43-6.768 1.986-4.054.974-8.141-1.502-12.31-1.54-5.209-.05-9.95 4.01-11.537 9.017-.588 1.854-.852 3.918-2.12 5.387-1.649 1.92-4.434 2.2-6.692 3.34A10.115 10.115 0 0 0 168 67.172v.044c0 .292 0 .583.05.875.258 2.355 1.345 4.528 2.142 6.762a28.003 28.003 0 0 1 1.538 7.097.364.364 0 0 1 0 .077c.033.402.06.803.077 1.21v1.426c0 2.101-.071 4.22-.066 6.321V92.278c0 .28 0 .55.033.848v.297c0 .258.038.522.066.78 0 .111 0 .227.027.337 0 .253.06.5.094.748l.05.352c.038.248.082.495.126.743l.065.34c.055.265.121.551.187.793.028.094.044.182.066.275.099.367.209.72.33 1.057a15.49 15.49 0 0 0 10.25 9.677c.886.245 1.802.36 2.72.342 1.648-.039 3.224-.55 4.202-1.679.242.276.478.55.73.826a32.893 32.893 0 0 0 28.594 10.364 32.924 32.924 0 0 0 24.874-17.517 63.885 63.885 0 0 1 1.725-.352c1-.187 2.005-.363 3.016-.55l.972-.154.385-.066c4.944-.781 9.745-1.304 13.184-1.65l-13.59 1.688s-3.297 15.851-4.247 17.607c-.95 1.755 3.296 4.682 3.296 4.682s3.675 4.49 3.675 5.86 4.252 5.27 5.411 7.416a3.3 3.3 0 0 0 .55.743 7.771 7.771 0 0 0-2.34 1.425c-2.687 2.547-1.792 7.015-3.022 10.514-.77 2.2-2.379 3.983-3.928 5.716a7.801 7.801 0 0 0-1.384 1.92 4.727 4.727 0 0 0-.368 1.475 7.235 7.235 0 0 0-.033.847v.1c0 .22 0 .434.044.649v.28c.269 2.3 1.049 4.523 1.285 6.823.236 2.3-.05 4.616.423 6.855.164.78.418 1.54.758 2.261l-7.866 8.803s-.05.435-.066 1.15c-6.56 5.453-16.7 15.741-13.08 24.814.395.994.762 1.946 1.099 2.855-2.665 1.7-3.544 3.72.45 5.733.632.32 1.242.595 1.84.842 2.05 6.025 2.851 7.703 6.285 3.263.368-.484.796-1.1 1.263-1.766 4.834-.1 7.63-2.339 7.63-2.339s13.53-.78 17.03 1.37c1.753 1.1 5.873 1.32 9.52 1.293-.049 3.936.135 7.871.55 11.785 0 0-.583 16.594.966 20.11 1.55 3.516 2.407 9.568 2.407 9.568s-2.599 5.854-1.055 8.979c1.543 3.125-1.352 7.615-1.352 7.615v11.515l1.1-.077c-.083.776-.188 1.59-.325 2.366-.319 1.8-.797 3.411-1.533 3.934-1.933 1.392-2.126 8.803-2.126 8.803s-3.092 8.985-2.516 10.547c.577 1.563-3.67 4.682-2.702 7.026.967 2.344 2.944 17.177 4.664 21.458 1.719 4.28-3.505 3.125-3.505 3.125l1.543 11.125s1.55 11.323.39 12.104c-1.159.781-7.828 6.443-3.24 9.76.356.259.719.495 1.098.721.02.514.008 1.028-.038 1.54-.088.875-.308 1.574-.797 1.651-1.362.198-4.07 1.563-4.642.98-.571-.584-3.845 1.474-7.141 2.145l-.456.072-4.28-1.1a30.07 30.07 0 0 0-19.336-.716s-3.104.484-4.61 2.806c-.763 1.188-1.098 2.861-.417 5.194 2.066 6.9 16.145 9.276 16.145 9.276s4.878 1.007 10.74 2.338h-.588a6.47 6.47 0 0 0-6.482 5.87 6.474 6.474 0 0 0 5.277 6.977 6.465 6.465 0 0 0 7.396-4.66 6.478 6.478 0 0 0-3.994-7.785c6.592 1.519 13.893 3.367 16.86 4.671a51.523 51.523 0 0 0 6.773 2.036 6.423 6.423 0 1 0 11.965 2.696c8.97 1.876 17.612 3.466 17.612 3.466l14.43.237h.1a6.432 6.432 0 0 0-6.384 6.459 6.432 6.432 0 0 0 6.428 6.415 6.432 6.432 0 0 0 6.427-6.415 6.432 6.432 0 0 0-6.383-6.46l21.847.358a6.466 6.466 0 0 0 1.97 6.717 6.441 6.441 0 0 0 6.923.973 6.46 6.46 0 0 0 3.742-5.913 6.463 6.463 0 0 0-.198-1.573l19.27.313 3.846-4.236c.215-.412.344-.863.38-1.326.115-1.392-.605-3.505-5.527-4.402-.363-.066-10.405.094-19.277.243v-3.489s-.247-1.92-.4-4.181a49.31 49.31 0 0 1-.1-2.041c.503.344 1.06.599 1.649.753 3.675.59 8.701-10.15 8.701-10.15s0-6.053 1.16-10.933c1.158-4.88 3.295-21.281 3.295-21.281l4.648-19.714s1.922-40.219.956-41.781c-.967-1.563 1.164-4.297 1.164-4.297s1.544-8.589-.774-11.516c-2.319-2.927 1.351-5.86 1.351-5.86s.967-10.15-1.741-14.051c-2.709-3.901 1.269-6.636 1.269-6.636l.966-15.812c4.06-4.1 7.73-28.5 7.927-33.771.051-2.967.71-5.892 1.934-8.594 0 0 2.703-4.1 3.093-6.834.39-2.734 3.296-8.39 3.296-8.39l5.026-18.745c2.027-7.56 1.511-13.15.165-17.133a22.576 22.576 0 0 0-.62-1.563zm-90.811 1.1c3.093 1.954 2.126 2.537 3.093 3.71.967 1.171.192.973-.583 2.926-.774 1.953-.192 1.37.193 3.516.384 2.146.197 2.146.197 2.146l.967.137-1.346 9.062c-2.197 1.436-3.202 4.187-3.658 7.026a194.802 194.802 0 0 1-3.774-5.095c.4-.897.324-1.964.335-2.971.044-3.301 1.274-6.454 1.84-9.705a24.56 24.56 0 0 0-.313-9.964 15.156 15.156 0 0 0-1.29-3.538c1.252.836 2.84 1.827 4.339 2.773v-.022zm3.477 191.32s2.445-1.651 4.818-3.153c.796 5.793 1.55 11.818 2.082 17.265a427.05 427.05 0 0 0-1.445-3.18 6.553 6.553 0 0 1-1.494-3.709c-.093-2.123-3.96-7.202-3.96-7.202v-.022zM297.15 136.012c.55.077 1.33.776 2.066 1.612-.682-.55-1.368-1.1-2.071-1.617l.005.005zm-35.383 72.23c-2.23.704-9.79.6-14.283.335a689.208 689.208 0 0 0 4.834-8.429c.875.227 1.766.387 2.665.479l14.717-12.946a25.31 25.31 0 0 0 17.084-.11l.401.627c.17.275.352.55.55.858l-.369-.6s-5.68 3.39-5.103 4.952c.577 1.563-.77 5.464-2.895 9.645a51.763 51.763 0 0 0-1.489 3.12c-4.812.45-13.882 1.364-16.112 2.068zm27.923 180.374l-.082-1.546c.934-.203 1.549-.39 1.549-.39a60.995 60.995 0 0 0-.967-6.834c-.582-2.343-.28-1.562 1.983-3.3 2.263-1.74 0-21.458 0-21.458s1.099-1.37 2.84 2.145c1.742 3.516 3.488 5.662 4.07 5.855.583.192-2.323 4.104 0 7.812a22.47 22.47 0 0 1 2.896 7.808s-1.544 6.2.774 8.957c.314.32.687.577 1.1.753v1.568c0 1.03 0 1.91-.05 2.097a.776.776 0 0 1-1.236.484c-.6-.39-4.395.484-4.137 2.932a17.991 17.991 0 0 1-3.032 2.845l-5.268-1.365-.44-8.363z" transform="translate(573)"/>
            <path fill="#F5EE4A" d="M815.074 186.248s-1.836 15.196 12.733 16.752L830 192.481l-4.59-6.233-6.574-2.248-3.762 2.248z"/>
            <path fill="#000" d="M818.894 184l-3.818 2.243S813.21 201.443 828 203" opacity=".1"/>
            <path fill="#F8BDC5" d="M842 100.26s-9.941.599-19.91 2.222a136.2 136.2 0 0 0-3.044.545c-.588.109-1.165.223-1.741.348-5.223 1.057-9.98 2.43-12.753 4.184-3.327 2.098-4.436-3.552-4.541-11.402-.044-2.762.05-5.79.2-8.852.194-3.541.476-7.126.776-10.35.66-7.148 1.42-12.705 1.42-12.705s3.481 0 8.133-.158l1.497-.054c1.458-.055 3.005-.131 4.563-.224.738-.038 1.48-.082 2.218-.136 2.95-.207 5.86-.501 8.317-.883 2.617-.414 4.74-.937 5.894-1.634C838.296 58.078 842 100.26 842 100.26z"/>
            <path fill="#474463" d="M885.653 156.487l-1.936 12.774s-4.22 5.225-3.667 8.128c.553 2.904 5.42 131.224 5.42 131.224s9.542 54.19 6.229 61.158c-3.313 6.968-.194 23.229-.194 23.229l19.857-3.096L918 153l-32.347 3.487z"/>
            <path fill="#000" d="M885.653 156.487l-1.936 12.774s-4.22 5.225-3.667 8.128c.553 2.904 5.42 131.224 5.42 131.224s9.542 54.19 6.229 61.158c-3.313 6.968-.194 23.229-.194 23.229l19.857-3.096L918 153l-32.347 3.487z" opacity=".1"/>
            <path fill="#474463" d="M972.654 165.19l-5.022 18.617s-2.898 5.62-3.293 8.336c-.396 2.716-3.09 6.788-3.09 6.788a21.555 21.555 0 0 0-1.933 8.529c-.192 5.24-3.842 29.476-7.92 33.548l-.966 15.708s-3.842 2.71-1.158 6.612c2.684 3.9 1.74 13.96 1.74 13.96s-3.672 2.91-1.35 5.82c2.321 2.908.768 11.443.768 11.443s-2.124 2.71-1.158 4.264c.966 1.554-.955 41.499-.955 41.499l-4.644 19.58s-2.13 16.293-3.293 21.141c-1.164 4.849-1.158 10.854-1.158 10.854s-5.023 10.667-8.695 10.088c-3.672-.578-21.439-18.038-21.439-18.038l2.509-58.953s2.124-25.014.773-29.862c-1.35-4.849-2.316-29.086-2.316-29.086l-2.706-38.198-27.016-42.661s-1.96-12.413 3.64-16.094l1.015-6.705.916-6.094 32.072-3.493L967.039 140s3.782 2.342 5.763 8.187c1.356 3.94 1.878 9.493-.148 17.003z"/>
            <path fill="#FFC1C8" d="M887 184.532s-22.495 27.885-21.541 20.094c.595-4.894-2.481-10.87-4.875-14.648-1.414-2.247-2.584-3.718-2.584-3.718s13.725-25.397 14.49-21.936c.243 1.094 1.83 3.603 3.872 6.468 4.306 6.004 10.638 13.74 10.638 13.74z"/>
            <path fill="#F8BDC5" d="M830 192.782s-1.212 2.224-3.035 5.527c-4.368 7.852-12.224 21.771-15.603 26.175-4.804 6.262-4.416.395-9.608-12.718-3.854-9.753 8.009-20.914 14.352-25.986 2.184-1.762 3.713-2.78 3.713-2.78L830 192.782z"/>
            <path fill="#FFC1C8" d="M853.956 208s-16.039 1.35-19.13 2.316c-3.091.966-16.423.385-17.57 0-1.148-.384-23.968 4.83-13.53 10.045 10.438 5.214 17.022 0 17.022 0s13.529-.774 17.021 1.356c3.492 2.13 16.231.966 16.231.966L853.956 208z"/>
            <path fill="#000" d="M820.989 89.15c2.027 5.02.76 9.39-1.628 13.875-5.982 1.09-11.608 2.588-14.74 4.534-8.921 5.564-2.18-43.346-2.18-43.346s4.315 0 9.784-.213c-1.656 7.313 4.618 14.905 8.764 25.15z" opacity=".1"/>
            <path fill="#F8BDC5" d="M821 88.044c-.021 16.782-12.637 30.875-29.316 32.748-16.679 1.872-32.106-9.072-35.848-25.433-3.743-16.36 5.392-32.923 21.226-38.487s33.322 1.643 40.638 16.747a32.995 32.995 0 0 1 3.3 14.425z"/>
            <path fill="#000" d="M973 148.048a7.56 7.56 0 0 1-4.401 3.006c-7.553 2.095-60.801 14.676-64.284 13.913-3.075-.672-16.273-2.54-19.315-2.968l.919-5.99 32.144-3.434L967.24 140s3.774 2.302 5.76 8.048zM842 100.898c-6.354.38-12.684 1.08-18.967 2.102.09-.285.078-.591-.033-.868l12.996-1.6c0 .001-1.9-30.422-8.886-37.713 2.621-.42 4.749-.951 5.904-1.66 5.276-3.091 8.986 39.739 8.986 39.739z" opacity=".1"/>
            <path fill="#F5EE4A" d="M824.36 54.964s11.451-1.029 13-2.966c1.55-1.936 12.616-2.514 12.616-2.514s5.43-.969 6.616-2.328c1.185-1.359 30.655-3.098 33.566-1.546 2.912 1.552 5.63 2.515 7.378 2.713 1.747.198 15.327 9.871 16.684 9.871 1.356 0 38.594 35.056 38.594 35.056s3.86 8.909 5.437 9.294c1.577.385 15.526 35.634 15.526 35.634s1.94 8.517-5.624 10.652c-7.565 2.135-60.936 14.912-64.426 14.136-3.49-.776-19.986-3.098-19.986-3.098s.193 0-.193-2.13c-.386-2.129-.97-1.55-.199-3.488.772-1.937 1.555-1.744.585-2.905-.97-1.161 0-1.744-3.105-3.681-3.104-1.937-6.616-4.066-6.792-4.644-.177-.578-2.911-4.457-4.268-4.65-1.356-.192-39.394-10.845-39.394-10.845l-8.926-2.905s-4.268-2.906-3.308-4.644c.959-1.74 4.261-17.47 4.261-17.47l13.646-1.679s-2.034-32.794-9.676-38.297c-7.642-5.502-2.012-7.566-2.012-7.566z"/>
            <path fill="#000" d="M830 192.584s-1.221 2.18-3.059 5.416c-.286-10.004-7.349-11.943-10.941-12.276 2.2-1.727 3.74-2.724 3.74-2.724l10.26 9.584z" opacity=".1"/>
            <path fill="#F5EE4A" d="M820.88 119l.942 5.223s3.708 4.452 3.708 5.805c0 1.352 4.29 5.222 5.464 7.35 1.175 2.127 5.265 2.518 3.703 6.195-1.563 3.678-10.53 31.732-10.53 31.732L815 185.365s15.213-1.358 12.869 16.635l19.702-17.042L863 157.114s-15.02-28.246-15.601-30.566c-.582-2.32-26.519-7.548-26.519-7.548z"/>
            <path fill="#000" d="M867 129s12-8.943 12-9.936c0-.994-12 9.936-12 9.936zM887 140s6.436-1.586 6.973-5.145C894.509 131.295 887 140 887 140zM892 149s9.382-4.207 8.988-4.935C900.594 143.336 892 149 892 149zM942 120s-3.958 2.354-2.782 4.558C940.394 126.763 942 120 942 120zM954 120s-11.15 10.793-8.629 10.997C947.893 131.202 954 120 954 120zM928 282s14.595 2.845 14.992 3.86C943.39 286.878 928 282 928 282zM934 292s7.798 4.522 7.996 5.838C942.196 299.155 934 292 934 292zM932 302s1.311 5.171 3.5 5.939c2.187.767-3.5-5.939-3.5-5.939zM817.816 73.618c0 .055 0 .116-.027.171-.264 1.734-.967 3.611-2.582 4.187a4.078 4.078 0 0 1-2.928-.271c-2.746-1.213-5.19-4.126-8.124-3.423-1.395.332-2.373 1.401-3.065 2.714-.48.945-.848 1.943-1.098 2.974-.55 2.17-.989 4.53-.149 6.596.139.338.304.664.495.974.78 1.258 1.878 2.326 2.647 3.595.956 1.584 1.203 3.96-.285 5.045a2.995 2.995 0 0 1-2.56.36 15.164 15.164 0 0 1-3.125-1.396c-1.945-1.024-4.395-1.661-6.24-.476-.638.399-1.148.975-1.758 1.396a6.296 6.296 0 0 1-4.246.891c-3.494-.36-4.8-2.592-7.47-4.32-1.956-1.273-6.043-1.816-7.207.787-.747 1.661.362 3.755-.368 5.45-.73 1.694-3.054 2.215-4.13 3.788-1.418 2.07-.1 5.067-1.138 7.365a3.758 3.758 0 0 1-.631.975c-12.098-13.143-11.714-33.58.869-46.252 12.583-12.672 32.854-13.035 45.875-.822l1.483-.056a202.25 202.25 0 0 0 4.52-.227c.366.78.651 1.594.852 2.432.598 2.467.73 5.026.39 7.543z" opacity=".1"/>
            <path fill="#474463" d="M769.2 92.002c-.752 1.644.355 3.714-.368 5.385-.723 1.67-3.058 2.191-4.12 3.747-1.42 2.054-.105 5.018-1.135 7.286-1.184 2.59-4.757 2.996-7.497 2.24a15.342 15.342 0 0 1-10.225-9.559c-1.858-5.286-.658-11.104-1.14-16.686a27.672 27.672 0 0 0-1.535-7.006c-.794-2.192-1.88-4.35-2.137-6.678a9.925 9.925 0 0 1 5.36-9.757c2.257-1.095 5.036-1.407 6.68-3.286 1.26-1.458 1.529-3.49 2.115-5.325 1.584-4.93 6.313-8.951 11.508-8.902 4.154.033 8.22 2.482 12.28 1.518 2.296-.548 4.384-2.192 6.752-1.956a8.567 8.567 0 0 1 3.194 1.189 124.509 124.509 0 0 1 17.925 11.777 20.178 20.178 0 0 0 3.798 2.58c.876.342 1.73.735 2.56 1.178 1.77 1.096 2.695 3.183 3.2 5.21.605 2.44.742 4.97.405 7.461-.241 1.759-.932 3.73-2.603 4.317a4.095 4.095 0 0 1-2.926-.28c-2.74-1.188-5.173-4.07-8.1-3.38-2.389.548-3.54 3.254-4.164 5.626-.548 2.148-.998 4.481-.148 6.53.701 1.698 2.192 2.942 3.129 4.514.937 1.572 1.205 3.922-.285 4.99-1.644 1.19-3.875-.076-5.678-1.018-1.928-1.014-4.383-1.644-6.22-.477-.63.395-1.14.964-1.753 1.386a6.38 6.38 0 0 1-4.23.877c-3.491-.357-4.795-2.564-7.453-4.273-1.956-1.271-6.023-1.808-7.19.772z"/>
            <path fill="#000" d="M876 170.776c-.151.821-1.306.914-1.541 1.713-2.242 7.721-7.174 14.665-14.786 17.511-1.462-2.25-2.673-3.721-2.673-3.721s14.202-25.419 14.993-21.955c.252 1.078 1.894 3.585 4.007 6.452z" opacity=".1"/>
            <path fill="#FFC1C8" d="M877 165.494A25.5 25.5 0 1 1 851.5 140a25.406 25.406 0 0 1 25.5 25.494z"/>
            <path fill="#575988" d="M895.227 316.686c-1.155 3.091-1.735 3.673-.574 5.216 1.16 1.543.574 9.664-1.265 10.432-1.84.77-8.76 5.409-8.76 5.409s3.833 5.024 3.948 7.137c.1 1.351.621 2.636 1.489 3.674 0 0 5.934 12.754 7.117 16.812 1.182 4.057 2.266 10.432 2.266 10.432s-2.074 5.798-.64 9.087c1.434 3.289 0 8.115 0 8.115s-20.7-2.125-22.993-4.854c-2.294-2.729-.767-8.867-.767-8.867a22.239 22.239 0 0 0-2.89-7.73c-2.316-3.674.547-7.534 0-7.732-.548-.197-2.316-2.317-4.057-5.792-1.741-3.476-2.825-2.13-2.825-2.13s2.255 19.519 0 21.26c-2.256 1.74-2.562.965-1.982 3.293.45 2.235.771 4.494.964 6.765 0 0-6.937 2.125-10.402 0-3.466-2.125-8.683-2.515-13.265-5.798-4.582-3.284 2.075-8.89 3.23-9.664 1.155-.774-.383-11.98-.383-11.98l-1.544-11.014s5.2 1.158 3.493-3.091c-1.708-4.25-3.685-18.938-4.648-21.255-.964-2.317 3.284-5.413 2.699-6.956-.586-1.543 2.502-10.432 2.502-10.432s.197-7.341 2.118-8.72c.734-.515 1.21-2.119 1.528-3.892.337-2.093.536-4.206.596-6.325 0 0 44.12-3.092 51.248 1.158 3.208 1.91 2.984 5.43 1.643 8.994-1.643 4.348-5.015 8.785-5.864 10.393-1.593 2.965-.826 4.964-1.982 8.055z"/>
            <path fill="#000" d="M903.05 298.53c-5.535 1.583-12.906 3.91-14.107 5.245-1.948 2.186-8.572-12.292-8.572-12.292s.393 10.884-8.372 6.332c-7.587-3.944-19.834-3.425-22.999-3.211.34-2.148.542-4.316.603-6.49 0 0 44.598-3.172 51.803 1.189 3.242 1.96 3.016 5.571 1.643 9.227z" opacity=".1"/>
            <path fill="#DCE6F2" d="M880.68 181.286s3.875-4.634 4.678-2.896c.802 1.739 5.375 5.21 5.375 5.21s1.312 4.053 3.62 4.634c2.309.582 19.647 23.742 19.647 23.742l-6.239 12.542-5.065 30.498s.221 4.826-1.157 6.581c-1.379 1.755-6.643 1.35-4.202 3.472s5.946 4.053 7.894 13.71c1.949 9.658 4.285 15.247 4.285 15.247s-18.312 4.634-20.261 6.756c-1.949 2.123-8.575-11.966-8.575-11.966s.393 10.59-8.376 6.164-23.77-3.077-23.77-3.077v-11.407s2.922-4.442 1.367-7.53c-1.556-3.088 1.063-8.879 1.063-8.879s-.87-5.983-2.43-9.455c-1.562-3.471-.975-19.88-.975-19.88s-1.185-10.618-.105-16.025a47.64 47.64 0 0 1 4.8-13.426c2.142-4.135 3.498-7.996 2.917-9.542-.581-1.547 5.143-4.892 5.143-4.892l3.172 5.084.808 3.038s16.779-11.912 16.386-17.703z"/>
            <path fill="#FFC1C8" d="M908.48 208s10.833 10.771 11.993 12.536c1.16 1.764 5.045 10.938.016 13.72-5.029 2.784-24.734 7.076-26.69 5.595-1.957-1.48-13.742 1.67-13.742 1.67s-19.71 4.898-15.456-3.134c4.255-8.032 14.319-6.68 14.319-6.68s16.258-.027 17.995-1.67c1.737-1.642 14.84-5.165 11.872-12.424-2.968-7.258-.307-9.613-.307-9.613z"/>
            <path fill="#000" d="M877 255s-25.346 22-22.823 22C856.7 277 877 255 877 255zM894 265s-8.418 1.756-6.791 2.816C888.836 268.876 894 265 894 265zM865 211s9.472.929 7.803 4.178C871.133 218.426 865 211 865 211zM858.597 305s-1.344 3.936 0 6.047c1.345 2.11 0 7.146 0 7.146v17.59S858.412 348.553 863 353l-4.403-48zM876.995 165.53a25.397 25.397 0 0 1-.977 7.007c-1.065.966-2.904.977-4.216.258-1.537-.845-2.54-2.382-3.54-3.841-.999-1.46-2.135-2.92-3.77-3.545-2.07-.78-4.43 0-6.23 1.295-1.8 1.295-3.238 3.007-4.94 4.39-1.701 1.383-3.87 2.502-6.037 2.162-1.4-.214-2.64-1.004-3.842-1.767-1.647-1.037-3.414-2.65-5.22-3.348-1.806-.696-3.293.55-5.011.55-1.367.493-2.854 1.618-2.58 3.04.147.527.385 1.024.703 1.47a6.173 6.173 0 0 1-.807 6.799 25.491 25.491 0 0 1 .576-29.806 25.503 25.503 0 0 1 28.463-8.883A25.495 25.495 0 0 1 877 165.496l-.005.033z" opacity=".1"/>
            <path fill="#794F6A" d="M833.164 167.943c-1.362.493-2.844 1.617-2.576 3.041.152.524.39 1.018.705 1.463 1.597 2.854.247 6.953-2.734 8.278a2.42 2.42 0 0 1-1.52.242 2.69 2.69 0 0 1-1.095-.658 10.145 10.145 0 0 1-3.155-5.451c-.47-2.192-.18-4.515-.421-6.767-.241-2.252-1.012-4.47-1.28-6.739a6.262 6.262 0 0 1 .344-3.33 7.747 7.747 0 0 1 1.379-1.897c1.536-1.714 3.139-3.468 3.91-5.643 1.22-3.462.334-7.873 3.003-10.41 1.236-1.161 2.964-1.594 4.495-2.328a31.66 31.66 0 0 0 4.13-2.625c4.95-3.407 10.966-6.026 16.85-4.82a23.943 23.943 0 0 1 6.678 2.739 75.068 75.068 0 0 1 10.939 7.363 17.036 17.036 0 0 1 3.828 3.94 13.678 13.678 0 0 1 1.674 4.19 24.06 24.06 0 0 1 .317 9.863c-.547 3.21-1.788 6.328-1.837 9.588 0 1.095.087 2.279-.476 3.221-.903 1.501-3.14 1.644-4.671.811-1.531-.833-2.532-2.378-3.522-3.835-.99-1.458-2.128-2.915-3.758-3.534-2.062-.783-4.413 0-6.207 1.288-1.794 1.287-3.222 3.002-4.923 4.383-1.7 1.38-3.828 2.498-6.016 2.158-1.394-.213-2.63-.997-3.828-1.758-1.64-1.041-3.402-2.652-5.196-3.343-1.794-.69-3.33.57-5.037.57z"/>
            <path fill="#F8BDC5" d="M891.294 208s-28.287 26.612-22.518 39.918c5.769 13.306 31.169-10.176 31.169-10.176L909 216.435 891.294 208z"/>
            <g fill="#000" opacity=".1">
                <path d="M827.968 179.045a2.435 2.435 0 0 1-1.528.242 2.638 2.638 0 0 1-1.102-.664 10.17 10.17 0 0 1-3.188-5.458c-.468-2.223-.176-4.529-.419-6.785-.242-2.257-1.025-4.475-1.29-6.753 0-.11 0-.225-.027-.34-.06.628-.051 1.261.027 1.888.265 2.273 1.048 4.469 1.29 6.753.243 2.284-.05 4.562.42 6.78a10.164 10.164 0 0 0 3.187 5.463c.308.305.687.532 1.102.659a2.435 2.435 0 0 0 1.528-.242c2.37-1.048 3.71-3.81 3.396-6.335a6.09 6.09 0 0 1-3.396 4.792zM878.427 156.673c-.552 3.217-1.804 6.341-1.848 9.608 0 1.098.089 2.284-.485 3.228-.904 1.504-3.16 1.647-4.703.813-1.544-.835-2.553-2.378-3.557-3.844-1.003-1.465-2.14-2.92-3.788-3.54-2.073-.78-4.444 0-6.253 1.295-1.809 1.296-3.253 3.003-4.963 4.392-1.709 1.39-3.887 2.504-6.065 2.169-1.406-.22-2.652-1.005-3.86-1.768-1.654-1.043-3.43-2.652-5.238-3.35-1.809-.696-3.308.55-5.034.55-1.373.5-2.868 1.62-2.603 3.052.034.155.084.306.149.45a4.287 4.287 0 0 1 2.454-1.954c1.72 0 3.242-1.23 5.034-.549 1.792.68 3.6 2.306 5.238 3.35 1.197.762 2.443 1.547 3.86 1.761 2.206.34 4.367-.763 6.065-2.163 1.699-1.4 3.16-3.13 4.963-4.392 1.803-1.263 4.18-2.075 6.253-1.29 1.654.62 2.79 2.097 3.788 3.541.998 1.444 2.013 2.976 3.557 3.843 1.544.868 3.799.692 4.703-.812.552-.945.469-2.125.485-3.228.044-3.267 1.28-6.391 1.848-9.608.29-1.653.409-3.33.352-5.007a24.27 24.27 0 0 1-.352 3.453z"/>
            </g>
            <path fill="#000" d="M857.69 73.032s-10.467 19.04 3.856 28.757c14.322 9.716 15.705 8.745 15.705 8.745s-.198 2.33 0 2.915 3.856 1.937 3.856 1.937 4.456 7.177 10.852 10.302 7.563 10.49 7.563 10.49 0 2.528 3.306 4.857c3.305 2.33 5.85 9.132 5.85 9.132v6.221c0 .972 1.162 3.865-1.355 4.174-2.518.31-.392 6.122-.392 6.122s-2.71 3.313-2.131 4.859c.578 1.545-1.163 4.66-1.163 4.66s-2.132 3.107-1.939 3.692c.193.586-2.324 2.722-1.746 4.08.578 1.358-2.903 3.108-2.325 4.665.579 1.557-2.479 2.33-2.479 2.33l-8.378 19.433s17.627 3.864 22.178 13.597l22.221-40.803s12.406-30.502 12.797-32.445c.391-1.943-2.716-8.938-2.716-8.938L926.13 114.21l-22.685-32.059s-18.03-38.457-45.754-9.12z" opacity=".1"/>
            <path fill="#000" d="M880.144 81.563s-27.363 9.582-12.95 19.301c14.41 9.72 15.778 8.742 15.778 8.742s-.194 2.336 0 2.916c.194.58 3.874 1.944 3.874 1.944s4.483 7.18 10.908 10.305c6.426 3.126 7.6 10.493 7.6 10.493s0 2.529 3.32 4.86c3.32 2.33 5.844 9.133 5.844 9.133v6.219c0 .972 1.168 3.865-1.367 4.18-2.534.315-.387 6.125-.387 6.125s-2.729 3.313-2.142 4.854c.587 1.54-1.168 4.666-1.168 4.666s-2.142 3.11-1.948 3.695c.194.585-2.34 2.722-1.754 4.08.586 1.36-2.922 3.11-2.336 4.667.587 1.558-2.496 2.33-2.496 2.33l-8.412 19.434s14.589.751 19.193 10.493l25.409-37.68s12.47-30.511 12.857-32.455c.387-1.944-2.718-8.963-2.718-8.963l-15.192-27.612L897.4 93.343S908 52.21 880.144 81.563z" opacity=".1"/>
            <path fill="#F5EE4A" d="M858.69 73.03s-10.467 19.041 3.856 28.758c14.324 9.716 15.707 8.744 15.707 8.744s-.193 2.33 0 2.915c.192.586 3.856 1.938 3.856 1.938s4.462 7.177 10.858 10.302c6.396 3.125 7.564 10.49 7.564 10.49s0 2.528 3.305 4.857c3.306 2.33 5.846 9.132 5.846 9.132v6.222c0 .971 1.162 3.864-1.361 4.173-2.523.31-.386 6.123-.386 6.123s-2.716 3.312-2.132 4.858c.584 1.546-1.162 4.66-1.162 4.66s-2.132 3.108-1.94 3.693c.193.585-2.33 2.722-1.746 4.08.584 1.358-2.909 3.108-2.325 4.665.584 1.557-2.484 2.33-2.484 2.33l-8.374 19.432s17.596 3.865 22.174 13.598l22.223-40.804s12.412-30.502 12.798-32.445c.385-1.943-2.716-8.938-2.716-8.938l-15.122-27.604-22.681-32.048s-18.037-38.468-45.758-9.13z"/>
            <g fill="#000" opacity=".1">
                <path d="M744.191 83.355a27.718 27.718 0 0 0-1.54-7.056c-.797-2.205-1.886-4.377-2.145-6.72v-.21a9.007 9.007 0 0 0 0 1.764c.259 2.343 1.348 4.499 2.145 6.72a27.674 27.674 0 0 1 1.54 7.051c.077.905.11 1.82.121 2.757.016-1.461 0-2.889-.121-4.306zM763.122 107.513c-1.183 2.602-4.774 3.015-7.524 2.249a15.448 15.448 0 0 1-10.263-9.615 22.817 22.817 0 0 1-1.1-7.337c-.033 3.037.082 6.036 1.1 8.887a15.453 15.453 0 0 0 10.263 9.62c2.75.76 6.341.352 7.524-2.255.5-1.103.451-2.382.429-3.639a5.695 5.695 0 0 1-.429 2.09zM816.56 71.271c-.237 1.764-.935 3.749-2.612 4.339a4.105 4.105 0 0 1-2.932-.276c-2.75-1.202-5.198-4.101-8.135-3.401-2.398.551-3.547 3.269-4.18 5.661a13.972 13.972 0 0 0-.588 4.67c.105-1.055.302-2.1.589-3.12.632-2.387 1.782-5.089 4.18-5.662 2.937-.695 5.362 2.205 8.134 3.401a4.083 4.083 0 0 0 2.931.281c1.678-.59 2.376-2.574 2.613-4.344.151-1.127.206-2.265.165-3.401-.028.617-.083 1.24-.165 1.852zM801.408 93.73c-1.65 1.197-3.889-.077-5.698-1.03-1.936-1.02-4.4-1.654-6.243-.48-.632.397-1.144.97-1.76 1.395a6.318 6.318 0 0 1-4.246.882c-3.503-.359-4.812-2.58-7.48-4.3-1.958-1.263-6.05-1.803-7.216.788a4.713 4.713 0 0 0-.225 2.387 3.11 3.11 0 0 1 .225-.832c1.172-2.597 5.258-2.057 7.216-.789 2.668 1.72 3.977 3.942 7.48 4.3a6.351 6.351 0 0 0 4.246-.887c.616-.42 1.128-.992 1.76-1.39 1.859-1.157 4.307-.55 6.243.48 1.809.948 4.037 2.205 5.698 1.026.968-.695 1.199-1.93.984-3.148a2.548 2.548 0 0 1-.985 1.599zM768.396 96.41c-.753 1.73-3.069 2.205-4.136 3.765-.797 1.158-.731 2.602-.704 4.052-.01-.883.235-1.75.704-2.497 1.067-1.56 3.383-2.04 4.136-3.771.264-.753.336-1.56.21-2.349a3.115 3.115 0 0 1-.21.8z"/>
            </g>
        </g>
    </g>
</svg>
