<svg xmlns="http://www.w3.org/2000/svg" width="34" height="39" viewBox="0 0 34 39">
    <path fill="#F5EE4A" fill-rule="nonzero" d="M17 0a.811.811 0 0 0-.81.813v3.25a.811.811 0 0 0 1.619 0V.813A.811.811 0 0 0 17 0zM5.553 4.76a.802.802 0 0 0-.57.242.807.807 0 0 0 0 1.143l2.29 2.297A.807.807 0 0 0 8.411 7.3L6.122 5.003a.802.802 0 0 0-.57-.241zm22.894 0a.802.802 0 0 0-.569.242L25.588 7.3a.807.807 0 0 0 1.139 1.142l2.29-2.297a.807.807 0 0 0 0-1.143.802.802 0 0 0-.57-.241zM17 7.313c-4.936 0-9.714 3.844-9.714 9.28 0 7.055 5.262 8.532 5.262 13.47h8.904c0-4.938 5.262-6.415 5.262-13.47 0-5.436-4.778-9.28-9.714-9.28zm-2.492 2.463h.076a.813.813 0 0 1 .278 1.574 6.1 6.1 0 0 0-3.832 4.634.81.81 0 1 1-1.594-.292A7.687 7.687 0 0 1 14.28 9.84a.807.807 0 0 1 .228-.064zM.81 16.25a.811.811 0 0 0-.81.812c0 .45.362.813.81.813h3.238c.447 0 .81-.364.81-.813a.811.811 0 0 0-.81-.812H.81zm29.142 0a.811.811 0 0 0-.81.812c0 .45.363.813.81.813h3.238c.448 0 .81-.364.81-.813a.811.811 0 0 0-.81-.812h-3.238zM12.548 31.688v1.625h8.904v-1.625h-8.904zm0 3.25c0 .933.764 1.624 1.619 1.624h5.666c.855 0 1.62-.69 1.62-1.624h-8.905zm2.833 2.437a1.618 1.618 0 1 0 3.238 0h-3.238z"/>
</svg>
