<svg xmlns="http://www.w3.org/2000/svg" xmlns:xlink="http://www.w3.org/1999/xlink" width="163" height="59" viewBox="0 0 163 59">
    <defs>
        <path id="a" d="M0 .15h51.706v39.346H0z"/>
        <path id="c" d="M.147.065h30.728V39.93H.147z"/>
        <path id="e" d="M0 58.553h162.802V.298H0z"/>
    </defs>
    <g fill="none" fill-rule="evenodd">
        <path fill="#1460B5" d="M7.338 24.04C10.15 15.265 18.446 8.89 28.22 8.89c4.581 0 8.837 1.403 12.357 3.795 1.643-1.688 2.952-3.345 3.972-4.885a28.24 28.24 0 0 0-16.329-5.168c-12.895 0-23.797 8.614-27.153 20.34l2.83.539c1.152.219 2.3.394 3.442.528"/>
        <g transform="translate(0 .149)">
            <mask id="b" fill="#fff">
                <use xlink:href="#a"/>
            </mask>
            <path fill="#1460B5" d="M51.476.15c.064 2.476-1.271 6.125-3.894 9.974a38.076 38.076 0 0 1-3.985 4.888C25.212 30.717 4.837 28.184.287 26.466A27.816 27.816 0 0 0 0 30.444c0 3.127.524 6.135 1.484 8.945 3.45.269 6.762-.055 6.762-.055 16.005-1.048 31.13-8.996 38.599-20.292a30.475 30.475 0 0 0 3.21-6.29c1.456-3.96 2.004-8.2 1.421-12.603" mask="url(#b)"/>
        </g>
        <path fill="#F6EE49" d="M8.628 50.691c9.333-.987 25.697-5.837 38.322-22.147a42.255 42.255 0 0 0 3.224-6.219 35.07 35.07 0 0 0 .979-2.659 37.514 37.514 0 0 1-2.348 3.511 41.419 41.419 0 0 1-2.021 2.48C38.242 35.342 24.66 41.801 10.4 43.191a59.16 59.16 0 0 1-5.527.285l-1.69.007a28.146 28.146 0 0 0 5.444 7.208"/>
        <g transform="translate(25.563 18.623)">
            <mask id="d" fill="#fff">
                <use xlink:href="#c"/>
            </mask>
            <path fill="#F6EE49" d="M28.184.065c.107 1.99.01 3.977-.28 5.945-.375 2.564-1.075 5.097-2.057 7.57-4.238 10.668-13.78 20.208-25.7 26.235.827.073 1.663.114 2.51.114 15.56 0 28.218-12.543 28.218-27.96 0-4.256-.967-8.29-2.69-11.904" mask="url(#d)"/>
        </g>
        <path fill="#1460B5" d="M64.882 16.982h-4.364v-3.62h13.09v3.62h-4.363V29.7h-4.363zM77.008 24.698c.592.47 1.23.85 1.915 1.144.685.293 1.332.44 1.94.44.66 0 1.138-.1 1.434-.302a.974.974 0 0 0 .444-.854.809.809 0 0 0-.153-.503 1.559 1.559 0 0 0-.443-.377 4.996 4.996 0 0 0-.698-.34c-.27-.108-.583-.23-.938-.364l-2.055-.855a6.086 6.086 0 0 1-1.269-.666 4.922 4.922 0 0 1-1.065-.98 4.5 4.5 0 0 1-.723-1.295 4.65 4.65 0 0 1-.267-1.608c0-.704.153-1.361.457-1.973a5.065 5.065 0 0 1 1.268-1.609 6.134 6.134 0 0 1 1.941-1.093c.753-.268 1.577-.403 2.473-.403.947 0 1.907.177 2.88.528a7.084 7.084 0 0 1 2.6 1.66l-2.182 2.714a7.934 7.934 0 0 0-1.61-.88 4.605 4.605 0 0 0-1.688-.301c-.54 0-.964.092-1.268.276-.304.185-.456.461-.456.83 0 .385.215.682.646.892.432.21 1.028.456 1.789.741l2.004.78c1.031.402 1.826.963 2.384 1.684.559.72.838 1.65.838 2.79a4.837 4.837 0 0 1-1.687 3.657c-.55.477-1.222.859-2.017 1.143-.795.285-1.708.428-2.74.428-1.049 0-2.127-.189-3.234-.566a8.622 8.622 0 0 1-3.007-1.772l2.487-2.966zM89.742 13.362h4.364v8.948c0 1.458.198 2.485.596 3.08.397.595 1.027.892 1.89.892.862 0 1.5-.297 1.915-.892.414-.595.622-1.622.622-3.08v-8.948h4.21v8.446c0 2.798-.549 4.863-1.649 6.196-1.099 1.332-2.798 1.998-5.099 1.998-2.317 0-4.037-.666-5.162-1.998-1.125-1.333-1.687-3.398-1.687-6.196v-8.446zM106.891 13.362h4.465l3.653 7.29 1.573 3.67h.101c-.05-.436-.11-.914-.177-1.433a43.27 43.27 0 0 1-.178-1.597c-.05-.544-.097-1.089-.14-1.634a20.245 20.245 0 0 1-.063-1.57v-4.726h4.16V29.7h-4.464l-3.653-7.314-1.573-3.645h-.101c.1.939.22 1.96.354 3.067.136 1.106.203 2.161.203 3.167V29.7h-4.16V13.362zM130.966 22.888l-.28-1.13a74.462 74.462 0 0 1-.608-2.564c-.203-.922-.406-1.793-.61-2.614h-.1a287.41 287.41 0 0 0-.572 2.626 61.965 61.965 0 0 1-.596 2.551l-.279 1.131h3.045zm.786 3.344h-4.617l-.812 3.468h-4.465l5.023-16.338h5.277L137.18 29.7h-4.618l-.811-3.468zM138.753 13.362h4.516l2.587 6.787.914 2.664h.101l.914-2.664 2.486-6.787h4.515V29.7h-4.059v-4.826c0-.418.021-.88.064-1.382.042-.503.088-1.018.14-1.546.05-.528.109-1.043.177-1.546.067-.503.127-.955.177-1.357h-.1l-1.371 3.82-2.283 5.505h-1.624l-2.283-5.505-1.319-3.82h-.101c.05.402.11.854.177 1.357.068.503.127 1.018.178 1.546.05.528.097 1.043.14 1.546.041.502.063.964.063 1.382V29.7h-4.009V13.362z"/>
        <mask id="f" fill="#fff">
            <use xlink:href="#e"/>
        </mask>
        <path fill="#1460B5" d="M158.439 29.7h4.363V13.362h-4.363zM61.736 34.22h4.363v12.72h6.24v3.619H61.737zM75.18 34.22h10.655v3.62h-6.29v2.564h5.377v3.62h-5.378v2.915h6.545v3.62H75.181zM96.236 47.14c.998 0 1.78-.43 2.347-1.294.566-.863.85-2.04.85-3.532 0-1.49-.284-2.643-.85-3.456-.567-.812-1.349-1.219-2.347-1.219s-1.78.407-2.346 1.22c-.567.812-.85 1.964-.85 3.455 0 1.492.283 2.669.85 3.532.566.863 1.348 1.294 2.346 1.294m0 3.72c-1.15 0-2.194-.192-3.133-.578a6.65 6.65 0 0 1-2.41-1.671c-.668-.729-1.188-1.625-1.56-2.69-.372-1.064-.558-2.266-.558-3.607 0-1.34.186-2.534.558-3.581.372-1.048.892-1.927 1.56-2.64a6.533 6.533 0 0 1 2.41-1.62c.939-.37 1.983-.554 3.133-.554 1.133 0 2.173.185 3.12.553a6.451 6.451 0 0 1 2.423 1.634c.668.72 1.188 1.6 1.56 2.64.372 1.038.559 2.228.559 3.568 0 1.341-.187 2.543-.559 3.607-.372 1.065-.892 1.961-1.56 2.69a6.631 6.631 0 0 1-2.422 1.671c-.948.386-1.988.578-3.12.578M106.84 34.22h4.465l3.653 7.29 1.573 3.67h.101c-.05-.436-.11-.913-.177-1.433a43.27 43.27 0 0 1-.178-1.596c-.05-.544-.097-1.09-.14-1.634a20.245 20.245 0 0 1-.063-1.57V34.22h4.16v16.338h-4.465l-3.652-7.315-1.573-3.644h-.102c.102.939.22 1.96.355 3.066.136 1.106.203 2.162.203 3.167v4.726h-4.16V34.221zM123.887 34.22h10.655v3.62h-6.291v2.564h5.378v3.62h-5.378v2.915h6.544v3.62h-10.908zM137.992 34.22h4.364v12.72h6.24v3.619h-10.604z" mask="url(#f)"/>
    </g>
</svg>
